<svg width="64" height="28" viewBox="0 0 64 28" fill="none" xmlns="http://www.w3.org/2000/svg">
<path d="M8.68572 27.0286H2.90253V6.88071H0V3.87766C2.71629 3.87766 3.94213 2.241 3.94213 0.971436H8.68572V27.0286Z" fill="#13CB5C"/>
<path fill-rule="evenodd" clip-rule="evenodd" d="M39.626 27.0286C46.6012 27.0286 52.2992 21.472 52.5622 14.517C52.5745 14.3534 52.5745 13.6601 52.5622 13.496C52.2992 6.528 46.6136 0.971436 39.626 0.971436C36.7711 0.971436 34.1411 1.90392 31.9999 3.47893C29.8588 1.90412 27.2163 0.971938 24.3611 0.971938C17.3736 0.971938 11.7008 6.5285 11.4378 13.4965C11.4255 13.6601 11.4255 14.3534 11.4378 14.517C11.7008 21.472 17.3859 27.0286 24.3611 27.0286C27.216 27.0286 29.8583 26.0961 32 24.5212C34.1412 26.0961 36.7706 27.0286 39.626 27.0286ZM28.4813 20.6278C27.6173 19.1537 27.0408 17.5029 26.8154 15.7259H32.0627C32.5011 17.7923 33.7783 19.5439 35.5063 20.6276C36.696 21.3959 38.1111 21.8246 39.6265 21.8246C43.7592 21.8246 47.14 18.599 47.3906 14.5165C47.4158 14.3399 47.404 13.6808 47.3906 13.496C47.14 9.41346 43.7715 6.17541 39.6265 6.17541C38.1111 6.17541 36.696 6.60359 35.5063 7.37246L35.5065 7.37296C36.3828 8.84754 36.9715 10.523 37.1969 12.3124H31.9497C31.5113 10.2206 30.2341 8.45663 28.4809 7.37296C27.2912 6.6041 25.8766 6.17591 24.3611 6.17591C20.2285 6.17591 16.86 9.41396 16.6094 13.4965C16.5842 13.6601 16.5842 14.3404 16.6094 14.517C16.86 18.5995 20.2408 21.8251 24.3611 21.8251C25.876 21.8251 27.2912 21.3964 28.4809 20.6281L28.4813 20.6278Z" fill="#13CB5C"/>
<path d="M58.2168 27.0286H64V0.971436H59.2564C59.2564 2.241 58.0306 3.87766 55.3143 3.87766V6.88071H58.2168V27.0286Z" fill="#13CB5C"/>
</svg>
