<svg width="57" height="25" viewBox="0 0 57 25" fill="none" xmlns="http://www.w3.org/2000/svg">
    <path d="M7.73571 24.1363H2.58507V6.19215H0V3.51756C2.4192 3.51756 3.51096 2.05991 3.51096 0.929199H7.73571V24.1363Z" fill="white"/>
    <path fill-rule="evenodd" clip-rule="evenodd" d="M35.2919 24.1363C41.5042 24.1363 46.579 19.1875 46.8132 12.9932C46.8242 12.8475 46.8242 12.23 46.8132 12.0839C46.579 5.87802 41.5152 0.929199 35.2919 0.929199C32.7493 0.929199 30.4069 1.75969 28.4999 3.16244C26.593 1.75987 24.2395 0.929647 21.6966 0.929647C15.4733 0.929647 10.421 5.87846 10.1868 12.0843C10.1758 12.23 10.1758 12.8475 10.1868 12.9932C10.421 19.1875 15.4843 24.1363 21.6966 24.1363C24.2392 24.1363 26.5926 23.3059 28.5 21.9032C30.407 23.3059 32.7489 24.1363 35.2919 24.1363ZM25.3661 18.4356C24.5967 17.1228 24.0832 15.6525 23.8825 14.0699H28.5558C28.9463 15.9103 30.0838 17.4703 31.6228 18.4354C32.6824 19.1197 33.9427 19.5016 35.2924 19.5016C38.973 19.5016 41.9841 16.6287 42.2072 12.9927C42.2297 12.8355 42.2192 12.2485 42.2072 12.0839C41.9841 8.44788 38.984 5.56399 35.2924 5.56399C33.9427 5.56399 32.6824 5.94534 31.6228 6.63011L31.623 6.63056C32.4035 7.94385 32.9278 9.43606 33.1285 11.0297H28.4552C28.0647 9.16676 26.9272 7.5957 25.3658 6.63056C24.3062 5.94579 23.0463 5.56443 21.6966 5.56443C18.016 5.56443 15.0159 8.44832 14.7928 12.0843C14.7703 12.23 14.7703 12.8359 14.7928 12.9932C15.0159 16.6292 18.027 19.502 21.6966 19.502C23.0459 19.502 24.3062 19.1202 25.3658 18.4359L25.3661 18.4356Z" fill="white"/>
    <path d="M51.8494 24.1363H57V0.929199H52.7752C52.7752 2.05991 51.6835 3.51756 49.2643 3.51756V6.19215H51.8494V24.1363Z" fill="white"/>
    </svg>
    