<svg width="15" height="11" viewBox="0 0 15 11" fill="none" xmlns="http://www.w3.org/2000/svg">
    <path
        d="M7.97714 2.52625L9.27202 5.11002C9.47648 5.51444 10.0217 5.62677 10.3624 5.35716L12.407 3.7395C12.2934 3.60469 12.2253 3.40248 12.2253 3.20028C12.2253 2.70599 12.6115 2.30157 13.1339 2.30157C13.6337 2.30157 14.0426 2.70599 14.0426 3.20028C14.0426 3.71703 13.6337 4.09898 13.1339 4.09898C13.1112 4.09898 13.1112 4.09898 13.1112 4.09898L12.0662 9.76081C11.9527 10.4348 11.3393 10.9291 10.6351 10.9291H4.34239C3.63815 10.9291 3.02479 10.4348 2.9112 9.76081L1.86621 4.09898C1.34371 4.09898 0.95752 3.71703 0.95752 3.20028C0.95752 2.70599 1.34371 2.30157 1.86621 2.30157C2.36599 2.30157 2.7749 2.70599 2.7749 3.20028C2.7749 3.40248 2.70675 3.60469 2.59316 3.7395L4.61499 5.35716C4.97847 5.62677 5.50096 5.51444 5.70542 5.11002L7.02302 2.52625C6.75041 2.36898 6.59139 2.09936 6.59139 1.76235C6.59139 1.26806 6.97758 0.863647 7.50008 0.863647C7.99986 0.863647 8.40877 1.26806 8.40877 1.76235C8.40877 2.09936 8.22703 2.36898 7.97714 2.52625Z"
        fill="white" />
</svg>
    