<svg width="15" height="11" viewBox="0 0 15 11" fill="none" xmlns="http://www.w3.org/2000/svg">
<path d="M7.97665 2.52625L9.27153 5.11002C9.47599 5.51444 10.0212 5.62677 10.362 5.35716L12.4065 3.7395C12.2929 3.60469 12.2248 3.40248 12.2248 3.20028C12.2248 2.70599 12.611 2.30157 13.1335 2.30157C13.6332 2.30157 14.0422 2.70599 14.0422 3.20028C14.0422 3.71703 13.6332 4.09898 13.1335 4.09898C13.1107 4.09898 13.1107 4.09898 13.1107 4.09898L12.0658 9.76081C11.9522 10.4348 11.3388 10.9291 10.6346 10.9291H4.3419C3.63766 10.9291 3.0243 10.4348 2.91071 9.76081L1.86572 4.09898C1.34322 4.09898 0.957031 3.71703 0.957031 3.20028C0.957031 2.70599 1.34322 2.30157 1.86572 2.30157C2.3655 2.30157 2.77441 2.70599 2.77441 3.20028C2.77441 3.40248 2.70626 3.60469 2.59267 3.7395L4.6145 5.35716C4.97798 5.62677 5.50048 5.51444 5.70493 5.11002L7.02253 2.52625C6.74992 2.36898 6.5909 2.09936 6.5909 1.76235C6.5909 1.26806 6.97709 0.863647 7.49959 0.863647C7.99937 0.863647 8.40828 1.26806 8.40828 1.76235C8.40828 2.09936 8.22654 2.36898 7.97665 2.52625Z" fill="#13CB5C"/>
</svg>